<svg id="Layer_1" data-name="Layer 1" xmlns="http://www.w3.org/2000/svg" viewBox="0 0 85 47.00049"><title>norton</title><path d="M71.64515,36.23346H16.48387A14.43675,14.43675,0,0,1,2.129,21.55966,14.40776,14.40776,0,0,1,16.48387,7.00849H71.64516A14.43676,14.43676,0,0,1,86,21.68228,14.40839,14.40839,0,0,1,71.64515,36.23346M16.48387,8.19384A13.35978,13.35978,0,0,0,3.17742,21.68228,13.35978,13.35978,0,0,0,16.48387,35.17073H71.64516A13.35978,13.35978,0,0,0,84.95161,21.68228,13.35978,13.35978,0,0,0,71.64516,8.19384H16.48387Z" transform="translate(-1 -1)" style="fill:#bbbaba"/><path d="M65.07257,13.46659a3.92427,3.92427,0,1,0,3.871,3.92391,3.84785,3.84785,0,0,0-3.871-3.92391m0,6.00849a1.96214,1.96214,0,1,1,1.93548-1.962,1.92322,1.92322,0,0,1-1.93548,1.962h0" transform="translate(-1 -1)" style="fill:#201600"/><path d="M47.25,13.46659a3.92427,3.92427,0,1,0,3.871,3.92391,3.84784,3.84784,0,0,0-3.871-3.92391m0,6.00849a1.96214,1.96214,0,1,1,1.93548-1.962,1.86147,1.86147,0,0,1-1.69355,1.962H47.25" transform="translate(-1 -1)" style="fill:#201600"/><path d="M60.91935,19.59771a1.67941,1.67941,0,0,1-.76613.12262c-0.64516,0-.76613-0.24524-0.76613-0.89923V15.14243h1.53226V13.58922H59.3871V11.50464H57.57258l-0.40323,2.08458H55.75807a2.58267,2.58267,0,0,0-2.33871,1.55321l-0.64516-1.55321H51.48387v7.60258h2.17742V17.92187c0-1.71671.8871-2.73856,2.05645-2.73856h1.16935v3.80129a2.21165,2.21165,0,0,0,1.81452,2.49332h0.52419a8.0654,8.0654,0,0,0,1.69355-.24524v-1.635Z" transform="translate(-1 -1)" style="fill:#201600"/><polyline points="70.645 15.083 70.645 20.192 68.468 20.192 68.468 12.712 69.758 12.712 70.161 13.775" style="fill:#201600"/><path d="M71.16128,14.89719a3.3528,3.3528,0,0,1,2.58064-1.308,2.46185,2.46185,0,0,1,2.45968,2.3707v5.39538H73.98386V16.4504a1.04693,1.04693,0,0,0-1.04839-1.06273h-0.121a1.37069,1.37069,0,0,0-1.29032.77661" transform="translate(-1 -1)" style="fill:#201600"/><polygon points="33.831 9.973 36.29 9.973 39.677 16.391 39.677 9.973 41.734 9.973 41.734 20.192 39.516 20.192 35.927 13.121 35.927 20.192 33.831 20.192 33.831 9.973" style="fill:#201600"/><polygon points="81.774 6.049 81.774 6.417 81.25 6.417 81.25 8.257 80.726 8.257 80.726 6.417 80.202 6.417 80.202 6.049 81.774 6.049" style="fill:#969594"/><polygon points="82.016 8.257 82.016 6.049 82.54 6.049 82.944 7.48 83.306 6.049 83.831 6.049 83.831 8.257 83.589 8.257 83.589 6.54 83.589 6.54 83.065 8.257 82.823 8.257 82.419 6.54 82.419 6.54 82.419 8.257 82.016 8.257" style="fill:#969594"/><path d="M34.18548,30.34759l0.52419-.77661a2.99358,2.99358,0,0,0,1.81452.654,0.99926,0.99926,0,0,0,1.16936-.77661V29.32574c0-.654-0.52419-0.77661-1.53226-1.18535a1.98057,1.98057,0,0,1-1.69355-1.962,1.76961,1.76961,0,0,1,1.81452-1.71671h0.24193a3.82769,3.82769,0,0,1,1.81452.40874l-0.40323.77661a2.7219,2.7219,0,0,0-1.41129-.40874,0.86944,0.86944,0,0,0-1.04839.654v0.12262c0,0.654.52419,0.77661,1.29032,1.06273a2.21276,2.21276,0,0,1,1.93548,2.08458c0,1.18535-.76613,1.83933-2.17742,1.83933a3.09089,3.09089,0,0,1-2.33871-.654" transform="translate(-1 -1)" style="fill:#969594"/><polygon points="39.677 23.462 43.548 23.462 43.548 24.361 40.806 24.361 40.806 26.2 43.024 26.2 43.024 26.977 40.806 26.977 40.806 29.061 43.669 29.061 43.669 30.002 39.677 30.002 39.677 23.462" style="fill:#969594"/><path d="M46.20161,27.73165c0-1.962.8871-3.39255,2.70161-3.39255a2.59481,2.59481,0,0,1,1.93548.77661l-0.64516.77661a1.60958,1.60958,0,0,0-1.29032-.53136c-1.04839,0-1.53226.89923-1.53226,2.49332,0,1.55322.52419,2.2072,1.53226,2.2072a1.508,1.508,0,0,0,1.29032-.654l0.64516,0.77661a2.70993,2.70993,0,0,1-1.93548.89923c-1.77419.04088-2.70161-1.38972-2.70161-3.35167" transform="translate(-1 -1)" style="fill:#969594"/><path d="M52.81451,28.50825V24.46172h1.16935v4.21c0,0.89923.24194,1.43059,1.16935,1.43059,0.8871,0,1.16935-.53136,1.16935-1.43059v-4.21h1.16935v4.04653c0,1.55322-.64516,2.61594-2.33871,2.61594s-2.3387-1.06273-2.3387-2.61594" transform="translate(-1 -1)" style="fill:#969594"/><path d="M64.02419,31.00157H62.85484L61.56452,28.263H60.51613v2.73856H59.46774V24.46172h2.05645c1.29032,0,2.33871.53136,2.33871,1.962a1.752,1.752,0,0,1-1.16935,1.71671Zm-2.58065-3.67867a1.1281,1.1281,0,0,0,1.29032-.77661V26.30105a0.8419,0.8419,0,0,0-.76613-1.06273H60.51612v1.962l0.92742,0.12262h0Z" transform="translate(-1 -1)" style="fill:#969594"/><polygon points="64.839 23.462 68.71 23.462 68.71 24.361 66.008 24.361 66.008 26.2 68.065 26.2 68.065 26.977 66.008 26.977 66.008 29.061 68.871 29.061 68.871 30.002 64.839 30.002 64.839 23.462" style="fill:#969594"/><path d="M71.64515,24.46172h1.53226A2.79514,2.79514,0,0,1,76.28225,26.955v0.77661a2.82791,2.82791,0,0,1-2.33871,3.26993H71.48387V24.46172h0.16129Zm1.57258,5.59975c1.53226,0,2.05645-.654,2.05645-2.3707,0-1.43059-.40323-2.3707-1.93548-2.3707H72.69354v4.70052A2.26879,2.26879,0,0,0,73.21774,30.06147Z" transform="translate(-1 -1)" style="fill:#969594"/><path d="M16.48387,37.4188a15.71782,15.71782,0,0,1,0-31.43217,15.71782,15.71782,0,0,1,0,31.43217m0-26.44553a10.64861,10.64861,0,0,0-7.5,3.1473A11.094,11.094,0,0,0,5.879,21.72316a10.94384,10.94384,0,0,0,3.10484,7.60258,10.79373,10.79373,0,0,0,7.5,3.1473,10.57733,10.57733,0,0,0,7.5-3.1473,11.094,11.094,0,0,0,3.10484-7.60258A10.69117,10.69117,0,0,0,16.48387,10.97327h0" transform="translate(-1 -1)" style="fill:#efba44"/><rect x="32.29838" y="2.49332" width="1.16936" height="1.18535" style="fill:#efba44"/><rect x="32.29838" width="1.16936" height="1.18535" style="fill:#efba44"/><rect x="28.95161" y="3.67867" width="1.16936" height="1.18535" style="fill:#efba44"/><rect x="26.73387" y="6.04936" width="1.16936" height="1.18535" style="fill:#201600"/><rect x="30.08064" y="4.98664" width="1.29032" height="1.18535" style="fill:#201600"/><rect x="25.56451" y="4.98664" width="1.16936" height="1.06273" style="fill:#201600"/><rect x="28.95161" y="6.04936" width="1.16936" height="1.18535" style="fill:#201600"/><rect x="31.12903" y="1.30797" width="1.16936" height="1.18535" style="fill:#201600"/><rect x="28.95161" y="2.49332" width="2.17742" height="1.18535" style="fill:#201600"/><rect x="27.78226" y="3.67867" width="1.16936" height="2.3707" style="fill:#201600"/><path d="M28.78226,8.19384V9.37919H27.6129V8.19384H25.67742V8.97044h-0.8871v1.06273h1.16936v1.18535H24.79032V10.03317H23.621v1.83933H22.45161v1.18535H21.68548V14.2432H20.91935c-1.41129,2.49332-2.82258,4.98664-3.99194,7.60258-2.621-3.556-4.55645-4.98664-6.129-5.518-0.76613-.24524-1.81452.654-0.52419,2.08458a24.17079,24.17079,0,0,1,5.16129,8.91055c0.52419,1.18535,2.82258,1.43059,3.22581.12262a37.61576,37.61576,0,0,1,4.15323-8.13394v-1.308h0.8871V16.81827H24.75v-1.308h1.16936v-1.308H24.75V13.017h1.16936v1.18535h1.16936V13.017h0.92742V11.58639h1.04839V10.68716h0.8871V8.19384H28.78226Z" transform="translate(-1 -1)" style="fill:#201600"/><path d="M8.1371,42.77331H9.06452v0.654a1.508,1.508,0,0,1,1.29032-.654A1.74259,1.74259,0,0,1,12.04839,44.49v0.24524h0a1.77419,1.77419,0,0,1-1.69355,1.962h0a1.508,1.508,0,0,1-1.29032-.654v1.55322H8.17742L8.1371,42.77331h0ZM11.121,44.61264h0a1.07421,1.07421,0,0,0-.8871-1.18535h-0.121a1.082,1.082,0,0,0-1.04839,1.18535h0a0.95874,0.95874,0,0,0,.8871,1.18535,0.95054,0.95054,0,0,0,1.16935-.89923V44.61264" transform="translate(-1 -1)" style="fill:#969594"/><path d="M12.65323,44.61264h0a1.976,1.976,0,0,1,1.93548-1.962A1.872,1.872,0,0,1,16.52419,44.49v0.12262h0a1.976,1.976,0,0,1-1.93548,1.962,2.00367,2.00367,0,0,1-1.93548-1.962m3.10484,0h0a1.16946,1.16946,0,1,0-2.33871,0h0A1.17828,1.17828,0,0,0,14.58871,45.798h0a1.07862,1.07862,0,0,0,1.16936-1.06273V44.61264" transform="translate(-1 -1)" style="fill:#969594"/><polygon points="16.048 41.773 16.976 41.773 17.621 44.267 18.508 41.773 19.153 41.773 20.081 44.267 20.847 41.773 21.613 41.773 20.444 45.575 19.677 45.575 18.79 42.959 17.984 45.575 17.218 45.575 16.048 41.773" style="fill:#969594"/><path d="M23.1371,44.61264h0a1.87556,1.87556,0,0,1,1.81452-1.962h0A1.77059,1.77059,0,0,1,26.76613,44.49v0.36787H24.06452a0.99315,0.99315,0,0,0,1.04839.89923,1.41741,1.41741,0,0,0,1.04839-.40874l0.52419,0.40874a2.05156,2.05156,0,0,1-1.53226.654,1.75136,1.75136,0,0,1-1.93548-1.43059,0.61424,0.61424,0,0,1-.08065-0.36786m2.70161-.24524a1.02882,1.02882,0,0,0-.8871-1.06273,0.87561,0.87561,0,0,0-.8871.89923v0.12262l1.77419,0.04087h0Z" transform="translate(-1 -1)" style="fill:#969594"/><path d="M27.53226,42.77331h0.8871v0.77661a1.491,1.491,0,0,1,1.29032-.89923v0.89923h0a1.23607,1.23607,0,0,0-1.29032,1.308V46.4111h-0.8871V42.77331Z" transform="translate(-1 -1)" style="fill:#969594"/><path d="M30.23387,44.61264h0a1.87556,1.87556,0,0,1,1.81452-1.962h0A1.77059,1.77059,0,0,1,33.8629,44.49v0.36787H31.16129a0.99315,0.99315,0,0,0,1.04839.89923,1.41741,1.41741,0,0,0,1.04839-.40874l0.52419,0.40874a2.05156,2.05156,0,0,1-1.53226.654,1.75136,1.75136,0,0,1-1.93548-1.43059,0.61425,0.61425,0,0,1-.08064-0.36786m2.70161-.24524a1.02882,1.02882,0,0,0-.8871-1.06273,0.87561,0.87561,0,0,0-.8871.89923v0.12262l1.77419,0.04087h0Z" transform="translate(-1 -1)" style="fill:#969594"/><path d="M34.50806,44.61264h0a1.76914,1.76914,0,0,1,1.41129-1.962h0.24193a1.508,1.508,0,0,1,1.29032.654v-1.962h0.8871V46.5746h-0.8871v-0.654a1.508,1.508,0,0,1-1.29032.654,1.74259,1.74259,0,0,1-1.69355-1.71671,0.52477,0.52477,0,0,0,.04032-0.24524m2.98387,0h0a1.07421,1.07421,0,0,0-.8871-1.18535h-0.121a1.02376,1.02376,0,0,0-1.04839.89923v0.24524h0a1.03822,1.03822,0,1,0,2.05645.28612V44.61264" transform="translate(-1 -1)" style="fill:#969594"/><path d="M42.25,45.92061V46.452H41.48387V41.22009H42.371v2.08458a1.508,1.508,0,0,1,1.29032-.654,1.74259,1.74259,0,0,1,1.69355,1.71671v0.24524h0a1.77419,1.77419,0,0,1-1.69355,1.962h0a1.31451,1.31451,0,0,1-1.41129-.654m2.21774-1.308h0a1.07421,1.07421,0,0,0-.8871-1.18535h-0.121a1.082,1.082,0,0,0-1.04839,1.18535h0a1.03822,1.03822,0,1,0,2.05645.28612V44.61264" transform="translate(-1 -1)" style="fill:#969594"/><path d="M45.879,47.47383l0.24193-.654a0.83032,0.83032,0,0,0,.52419.12262,0.544,0.544,0,0,0,.52419-0.40874l-1.53226-3.80129h0.8871L47.57258,45.471l0.8871-2.73856h0.8871l-1.41129,3.80129a1.15131,1.15131,0,0,1-1.16936,1.06273,1.35775,1.35775,0,0,1-.88709-0.12262" transform="translate(-1 -1)" style="fill:#969594"/><text transform="translate(50.4037 45.08449) scale(0.98651 1)" style="isolation:isolate;font-size:6.539852619171143px;font-family:Open Sans;font-weight:700">Symantec</text></svg>